<svg width="40" height="40" viewBox="0 0 40 40" fill="none" xmlns="http://www.w3.org/2000/svg">
<g id="logo-59">
<path id="Vector" d="M16.1521 4.79998C11.9201 3.57598 5.97609 0.991985 3.84809 5.27198C1.52009 9.97597 5.64009 14.4 8.3281 17.88C10.1761 20.52 9.5201 22.776 7.07209 25.352C1.60009 31.088 4.06409 38.768 12.1201 38.896C15.6321 38.896 18.8881 37.232 21.9841 35.568C27.9201 32.368 31.5841 34.728 35.4481 31.952C38.0401 30.104 36.2081 25.384 35.1361 22.544C34.2217 20.169 34.1623 17.55 34.9681 15.136C35.7681 12.08 36.2801 7.13598 32.9041 5.60798C31.3681 5.03198 29.6001 5.69598 28.0001 5.17598C26.0161 4.51198 25.0241 2.16798 23.0801 1.39198C19.2961 -0.128016 19.2001 5.59998 16.1521 4.79998Z" stroke="url(#paint0_linear_118_871)" stroke-width="0.8" stroke-miterlimit="10"/>
<path id="Vector_2" d="M23.3521 2.31183C25.2001 3.03183 26.1601 5.23183 28.0481 5.86383C29.5281 6.35983 31.2481 5.71183 32.6721 6.30383C35.8721 7.64784 35.5761 12.4638 34.7121 15.3358C34.0192 17.65 34.0837 20.125 34.8961 22.3998C35.8961 25.1198 37.5761 29.5998 35.1121 31.3758C31.4161 34.0478 27.9121 31.8958 22.3121 34.8798C19.3761 36.4318 16.2801 38.0078 12.9681 37.9518C5.36806 37.8398 3.02406 30.5598 8.08005 25.1518C10.3521 22.7118 11.0161 20.5358 9.24005 18.0638C6.84006 14.6958 2.90406 10.5518 5.12006 6.11183C7.12006 2.02383 12.7201 4.39983 16.7281 5.48783C19.6081 6.27183 19.7441 0.887833 23.3521 2.31183Z" stroke="url(#paint1_linear_118_871)" stroke-width="0.784" stroke-miterlimit="10"/>
<path id="Vector_3" d="M23.5839 3.19995C25.3359 3.87995 26.2799 5.91995 28.0639 6.51995C29.4639 6.99195 31.0719 6.39995 32.4399 6.96795C35.5039 8.28792 35.1999 12.7999 34.4559 15.5359C33.8361 17.7305 33.9059 20.0625 34.6559 22.2159C35.5839 24.8239 37.1199 29.0559 34.7839 30.7679C31.2879 33.3279 27.9519 31.3919 22.5999 34.1519C19.8239 35.5999 16.9039 37.0479 13.8 36.9759C6.63997 36.7999 4.39998 29.9999 9.06395 24.8719C11.16 22.5679 11.768 20.5039 10.112 18.1759C7.84798 14.9759 4.25598 11.0559 6.35198 6.87195C8.27195 3.05595 13.5519 5.21595 17.3119 6.19995C19.9999 6.91995 20.1919 1.91995 23.5839 3.19995Z" stroke="url(#paint2_linear_118_871)" stroke-width="0.752" stroke-miterlimit="10"/>
<path id="Vector_4" d="M23.8159 4.15206C25.4799 4.80006 26.3999 6.67206 28.0799 7.24006C29.3999 7.68006 30.9199 7.15206 32.2079 7.69606C35.0879 8.9281 34.8959 13.1521 34.1999 15.7441C33.6489 17.8198 33.7184 20.0115 34.3999 22.0481C35.2719 24.5441 36.6479 28.5361 34.4479 30.1761C31.1519 32.6321 27.9679 30.8961 22.9039 33.4481C20.2799 34.7761 17.5359 36.1041 14.5999 36.0161C7.9199 35.8321 5.7999 29.4561 10.0559 24.6241C11.9759 22.4641 12.5199 20.5201 10.9999 18.3201C8.91191 15.2881 5.5999 11.5921 7.6079 7.66406C9.41591 4.08806 14.3279 6.06406 17.8959 6.92006C20.4399 7.56006 20.6319 2.95206 23.8159 4.15206Z" stroke="url(#paint3_linear_118_871)" stroke-width="0.736" stroke-miterlimit="10"/>
<path id="Vector_5" d="M24.0479 5.0719C25.6479 5.6479 26.5039 7.3919 28.0959 7.9199C29.3439 8.3439 30.7599 7.8799 31.9679 8.3919C34.6799 9.5599 34.5519 13.4959 33.9439 15.9439C33.465 17.9076 33.5426 19.9658 34.1679 21.8879C34.9679 24.2879 36.1999 28.0079 34.1279 29.5839C31.0239 31.9279 27.9919 30.3839 23.2239 32.7839C20.7599 33.9999 18.1759 35.1839 15.4319 35.0959C9.21594 34.8399 7.19991 28.9199 11.0559 24.3839C12.7999 22.3599 13.2959 20.5359 11.9039 18.4639C9.97594 15.5999 6.99991 12.1279 8.86394 8.4639C10.5679 5.1199 15.1359 6.8639 18.4639 7.6639C20.8559 8.1999 21.0799 3.9999 24.0479 5.0719Z" stroke="url(#paint4_linear_118_871)" stroke-width="0.72" stroke-miterlimit="10"/>
<path id="Vector_6" d="M24.2881 5.99186C25.7681 6.51986 26.6161 8.10391 28.1121 8.60791C29.2801 9.00791 30.6081 8.6079 31.7361 9.0959C34.2721 10.1999 34.2161 13.8399 33.6881 16.1439C33.2742 17.9992 33.357 19.9308 33.9281 21.7439C34.6561 24.0079 35.7361 27.5039 33.7921 29.0159C30.8961 31.1999 28.0001 29.8959 23.5361 31.9999C21.2241 33.1039 18.8161 34.1839 16.2641 34.0719C10.5041 33.8079 8.56005 28.3359 12.0561 24.1119C13.6561 22.2239 14.0561 20.5199 12.8001 18.5839C11.0401 15.8799 8.36805 12.6319 10.1201 9.2319C11.7201 6.11187 15.9361 7.63186 19.0561 8.3199C21.2721 8.8479 21.5281 4.99986 24.2881 5.99186Z" stroke="url(#paint5_linear_118_871)" stroke-width="0.688" stroke-miterlimit="10"/>
<path id="Vector_7" d="M24.52 6.91208C25.904 7.39208 26.736 8.8241 28.128 9.3121C29.224 9.6801 30.456 9.3121 31.504 9.8081C33.856 10.8561 33.904 14.2081 33.432 16.3601C33.0883 18.1015 33.1763 19.9005 33.688 21.6001C34.344 23.7441 35.288 27.0001 33.464 28.4401C30.768 30.5681 28.024 29.4401 23.864 31.3681C21.712 32.3601 19.472 33.3041 17.112 33.1841C11.816 32.8801 9.96801 27.8641 13.112 23.9441C14.496 22.1841 14.88 20.6081 13.744 18.8001C12.144 16.2721 9.80002 13.2401 11.424 10.0961C12.92 7.21608 16.8 8.4961 19.696 9.1121C21.688 9.4881 21.976 6.03208 24.52 6.91208Z" stroke="url(#paint6_linear_118_871)" stroke-width="0.672" stroke-miterlimit="10"/>
<path id="Vector_8" d="M24.752 7.83195C26.048 8.26392 26.848 9.54392 28.144 9.98392C29.16 10.3279 30.296 10.0399 31.272 10.4879C33.448 11.4799 33.536 14.5359 33.176 16.5439C32.906 18.1602 32.999 19.8161 33.448 21.3919C34.032 23.4319 34.816 26.4319 33.136 27.7919C30.64 29.8079 28.048 28.8879 24.152 30.6079C22.152 31.4879 20.088 32.3119 17.92 32.1679C13.12 31.8399 11.336 27.2639 14.048 23.6479C15.264 22.0479 15.584 20.5599 14.584 18.8879C13.168 16.5279 11.112 13.7199 12.624 10.8399C14.016 8.19192 17.544 9.23992 20.224 9.76792C22.104 10.1359 22.4 7.05595 24.752 7.83195Z" stroke="url(#paint7_linear_118_871)" stroke-width="0.64" stroke-miterlimit="10"/>
<path id="Vector_9" d="M24.9921 8.75219C26.1921 9.13619 26.9601 10.2642 28.1921 10.6722C29.1361 10.9922 30.1761 10.7602 31.0721 11.1842C33.0721 12.1122 33.2241 14.8802 32.9521 16.7842C32.7485 18.2818 32.8464 19.805 33.2401 21.2642C33.7521 23.1842 34.3921 25.9442 32.8401 27.2482C30.5441 29.1602 28.0961 28.4402 24.4961 29.9442C22.6481 30.7442 20.7521 31.4162 18.7761 31.2562C14.4001 30.8962 12.7521 26.7682 15.0801 23.4482C16.1121 21.9682 16.3841 20.6242 15.5121 19.0882C14.2721 16.8882 12.5121 14.2882 13.9121 11.6882C15.1921 9.28819 18.3841 10.1442 20.8321 10.5362C22.5201 10.7762 22.8641 8.08019 24.9921 8.75219Z" stroke="url(#paint8_linear_118_871)" stroke-width="0.624" stroke-miterlimit="10"/>
<path id="Vector_10" d="M25.2241 9.67212C26.3361 10.0081 27.0721 10.9841 28.1761 11.3521C29.0401 11.6481 29.9841 11.4881 30.8001 11.8801C32.6241 12.7521 32.8481 15.2241 32.6641 16.9521C32.528 18.3296 32.6281 19.7203 32.9601 21.0641C33.4081 22.8721 33.9041 25.3921 32.4801 26.6641C30.4001 28.4321 28.0801 27.9201 24.8001 29.2081C23.1767 29.9641 21.3977 30.326 19.6081 30.2641C15.6881 29.8641 14.1441 26.1921 16.0721 23.1761C16.5169 22.6172 16.7863 21.9389 16.8461 21.227C16.9059 20.5152 16.7534 19.8015 16.4081 19.1761C15.3361 17.1441 13.8881 14.7921 15.1601 12.4241C16.3441 10.2481 19.1601 10.9041 21.4161 11.1921C22.9281 11.4241 23.3121 9.10412 25.2241 9.67212Z" stroke="url(#paint9_linear_118_871)" stroke-width="0.608" stroke-miterlimit="10"/>
<path id="Vector_11" d="M25.4561 10.592C26.4801 10.872 27.1921 11.696 28.1921 12.04C28.9921 12.312 29.7921 12.208 30.5921 12.576C32.2401 13.376 32.5281 15.568 32.4321 17.152C32.3665 18.4111 32.4715 19.6732 32.7441 20.904C33.1201 22.592 33.4641 24.864 32.1681 26.032C30.2801 27.728 28.1681 27.424 25.1041 28.504C23.6274 29.1305 22.0251 29.4044 20.4241 29.304C16.9681 28.872 15.5201 25.656 17.0641 22.904C17.4177 22.3796 17.6255 21.7706 17.6663 21.1395C17.7071 20.5083 17.5793 19.8776 17.2961 19.312C16.3921 17.448 15.2481 15.312 16.4081 13.216C17.4881 11.272 19.9841 11.712 22.0081 11.904C23.3441 12.064 23.7601 10.128 25.4561 10.592Z" stroke="url(#paint10_linear_118_871)" stroke-width="0.576" stroke-miterlimit="10"/>
<path id="Vector_12" d="M25.688 11.512C26.624 11.744 27.288 12.416 28.208 12.728C28.9297 12.8574 29.6409 13.0391 30.336 13.272C31.8 14.024 32.16 15.912 32.152 17.352C32.1529 18.4879 32.2628 19.6211 32.48 20.736C32.784 22.336 32.984 24.344 31.816 25.432C30.128 27.032 28.12 26.928 25.416 27.832C24.0902 28.3335 22.6667 28.5224 21.256 28.384C20.6175 28.333 20.0012 28.1263 19.4612 27.782C18.921 27.4376 18.4736 26.9662 18.1578 26.4089C17.842 25.8516 17.6676 25.2254 17.6499 24.5851C17.6322 23.9448 17.7716 23.3099 18.056 22.736C18.3198 22.2475 18.4678 21.7048 18.4886 21.15C18.5094 20.5952 18.4024 20.043 18.176 19.536C17.448 17.832 16.576 15.928 17.656 14.088C18.624 12.376 20.776 12.6 22.56 12.688C23.76 12.712 24.208 11.144 25.688 11.512Z" stroke="url(#paint11_linear_118_871)" stroke-width="0.56" stroke-miterlimit="10"/>
<path id="Vector_13" d="M25.9281 12.432C26.7139 12.71 27.4809 13.0387 28.2241 13.416C28.8655 13.5453 29.4946 13.73 30.1041 13.968C31.3921 14.664 31.8161 16.256 31.8961 17.552C31.9521 18.528 32.0881 19.592 32.2401 20.576C32.4721 22.04 32.5201 23.816 31.4881 24.84C30.0001 26.328 28.1441 26.44 25.6961 27.088C24.5241 27.4634 23.2814 27.5647 22.0641 27.384C21.5146 27.3117 20.9882 27.1178 20.523 26.8164C20.058 26.5149 19.6659 26.1136 19.3755 25.6415C19.0851 25.1695 18.9036 24.6386 18.8442 24.0876C18.7847 23.5365 18.849 22.9792 19.0321 22.456C19.3802 21.5496 19.3802 20.5465 19.0321 19.64C18.4801 18.104 17.9441 16.44 18.8721 14.84C19.8001 13.24 21.5361 13.336 23.1041 13.368C24.1761 13.384 24.6561 12.16 25.9281 12.432Z" stroke="url(#paint12_linear_118_871)" stroke-width="0.544" stroke-miterlimit="10"/>
<path id="Vector_14" d="M26.16 13.352C26.8736 13.5427 27.5694 13.7943 28.24 14.104C28.7906 14.2371 29.3265 14.4247 29.84 14.664C30.3457 15.0168 30.7667 15.4775 31.0724 16.013C31.3782 16.5485 31.5612 17.1452 31.608 17.76C31.728 18.6 31.864 19.528 31.968 20.408C32.12 21.76 32.024 23.288 31.168 24.248C29.864 25.6 28.16 25.944 26.008 26.4C24.9839 26.6449 23.918 26.6585 22.888 26.44C21.946 26.2576 21.1141 25.7106 20.5733 24.9181C20.0324 24.1257 19.8264 23.1517 20 22.208C20.1645 21.413 20.1372 20.5902 19.92 19.808C19.544 18.432 19.304 16.984 20.112 15.664C20.92 14.344 22.4 14.208 23.712 14.08C24.584 14 25.112 13.176 26.16 13.352Z" stroke="url(#paint13_linear_118_871)" stroke-width="0.512" stroke-miterlimit="10"/>
<path id="Vector_15" d="M26.4001 14.2721C27.0393 14.3692 27.665 14.541 28.2641 14.7841C28.7277 14.9305 29.1753 15.1235 29.6001 15.3601C30.4913 15.9746 31.1172 16.9034 31.3521 17.9601C31.5447 18.7075 31.6705 19.4705 31.7281 20.2401C31.8713 21.4572 31.5357 22.6821 30.7921 23.6561C29.6079 24.8853 27.9936 25.6078 26.2881 25.6721C25.4167 25.7978 24.5283 25.7267 23.6881 25.4641C22.9333 25.2313 22.2694 24.7699 21.7879 24.1437C21.3065 23.5176 21.0312 22.7574 21.0001 21.9681C20.9836 21.2875 20.9221 20.6087 20.8161 19.9361C20.5431 18.7432 20.7407 17.4909 21.3681 16.4401C21.7152 15.9856 22.1507 15.606 22.6484 15.3241C23.1461 15.0423 23.6957 14.8641 24.2641 14.8001C25.0001 14.6561 25.6001 14.1921 26.4001 14.2721Z" stroke="url(#paint14_linear_118_871)" stroke-width="0.496" stroke-miterlimit="10"/>
<path id="Vector_16" d="M26.6319 24.9679C29.3315 24.9679 31.5199 22.7795 31.5199 20.0799C31.5199 17.3803 29.3315 15.1919 26.6319 15.1919C23.9323 15.1919 21.7439 17.3803 21.7439 20.0799C21.7439 22.7795 23.9323 24.9679 26.6319 24.9679Z" stroke="url(#paint15_linear_118_871)" stroke-width="0.464" stroke-miterlimit="10"/>
</g>
<defs>
<linearGradient id="paint0_linear_118_871" x1="19.9662" y1="1.13403" x2="19.9662" y2="38.896" gradientUnits="userSpaceOnUse">
<stop stop-color="#272727"/>
<stop offset="1" stop-color="#272727" stop-opacity="0"/>
</linearGradient>
<linearGradient id="paint1_linear_118_871" x1="20.4286" y1="2.0708" x2="20.4286" y2="37.9533" gradientUnits="userSpaceOnUse">
<stop stop-color="#272727"/>
<stop offset="1" stop-color="#272727" stop-opacity="0"/>
</linearGradient>
<linearGradient id="paint2_linear_118_871" x1="20.8675" y1="2.98926" x2="20.8675" y2="36.9785" gradientUnits="userSpaceOnUse">
<stop stop-color="#272727"/>
<stop offset="1" stop-color="#272727" stop-opacity="0"/>
</linearGradient>
<linearGradient id="paint3_linear_118_871" x1="21.309" y1="3.95166" x2="21.309" y2="36.0202" gradientUnits="userSpaceOnUse">
<stop stop-color="#272727"/>
<stop offset="1" stop-color="#272727" stop-opacity="0"/>
</linearGradient>
<linearGradient id="paint4_linear_118_871" x1="21.7707" y1="4.896" x2="21.7707" y2="35.1005" gradientUnits="userSpaceOnUse">
<stop stop-color="#272727"/>
<stop offset="1" stop-color="#272727" stop-opacity="0"/>
</linearGradient>
<linearGradient id="paint5_linear_118_871" x1="22.2198" y1="5.82764" x2="22.2198" y2="34.0799" gradientUnits="userSpaceOnUse">
<stop stop-color="#272727"/>
<stop offset="1" stop-color="#272727" stop-opacity="0"/>
</linearGradient>
<linearGradient id="paint6_linear_118_871" x1="22.6999" y1="6.76807" x2="22.6999" y2="33.1944" gradientUnits="userSpaceOnUse">
<stop stop-color="#272727"/>
<stop offset="1" stop-color="#272727" stop-opacity="0"/>
</linearGradient>
<linearGradient id="paint7_linear_118_871" x1="23.1216" y1="7.70605" x2="23.1216" y2="32.1844" gradientUnits="userSpaceOnUse">
<stop stop-color="#272727"/>
<stop offset="1" stop-color="#272727" stop-opacity="0"/>
</linearGradient>
<linearGradient id="paint8_linear_118_871" x1="23.6064" y1="8.64429" x2="23.6064" y2="31.2799" gradientUnits="userSpaceOnUse">
<stop stop-color="#272727"/>
<stop offset="1" stop-color="#272727" stop-opacity="0"/>
</linearGradient>
<linearGradient id="paint9_linear_118_871" x1="24.0427" y1="9.58228" x2="24.0427" y2="30.2709" gradientUnits="userSpaceOnUse">
<stop stop-color="#272727"/>
<stop offset="1" stop-color="#272727" stop-opacity="0"/>
</linearGradient>
<linearGradient id="paint10_linear_118_871" x1="24.5018" y1="10.52" x2="24.5018" y2="29.3243" gradientUnits="userSpaceOnUse">
<stop stop-color="#272727"/>
<stop offset="1" stop-color="#272727" stop-opacity="0"/>
</linearGradient>
<linearGradient id="paint11_linear_118_871" x1="24.9317" y1="11.4561" x2="24.9317" y2="28.4281" gradientUnits="userSpaceOnUse">
<stop stop-color="#272727"/>
<stop offset="1" stop-color="#272727" stop-opacity="0"/>
</linearGradient>
<linearGradient id="paint12_linear_118_871" x1="25.3731" y1="12.3926" x2="25.3731" y2="27.4711" gradientUnits="userSpaceOnUse">
<stop stop-color="#272727"/>
<stop offset="1" stop-color="#272727" stop-opacity="0"/>
</linearGradient>
<linearGradient id="paint13_linear_118_871" x1="25.7996" y1="13.3274" x2="25.7996" y2="26.5944" gradientUnits="userSpaceOnUse">
<stop stop-color="#272727"/>
<stop offset="1" stop-color="#272727" stop-opacity="0"/>
</linearGradient>
<linearGradient id="paint14_linear_118_871" x1="26.2284" y1="14.2629" x2="26.2284" y2="25.7325" gradientUnits="userSpaceOnUse">
<stop stop-color="#272727"/>
<stop offset="1" stop-color="#272727" stop-opacity="0"/>
</linearGradient>
<linearGradient id="paint15_linear_118_871" x1="26.6319" y1="15.1919" x2="26.6319" y2="24.9679" gradientUnits="userSpaceOnUse">
<stop stop-color="#272727"/>
<stop offset="1" stop-color="#272727" stop-opacity="0"/>
</linearGradient>
</defs>
</svg>
