<svg width="40" height="40" viewBox="0 0 40 40" fill="none" xmlns="http://www.w3.org/2000/svg">
<g id="logo-67">
<path id="Vector" d="M5.27995 26.552C5.62899 26.552 5.91195 23.6186 5.91195 20C5.91195 16.3814 5.62899 13.448 5.27995 13.448C4.9309 13.448 4.64795 16.3814 4.64795 20C4.64795 23.6186 4.9309 26.552 5.27995 26.552Z" fill="url(#paint0_linear_118_888)"/>
<path id="Vector_2" d="M6.9601 27.28C7.34891 27.28 7.6641 24.0206 7.6641 20C7.6641 15.9793 7.34891 12.72 6.9601 12.72C6.5713 12.72 6.2561 15.9793 6.2561 20C6.2561 24.0206 6.5713 27.28 6.9601 27.28Z" fill="url(#paint1_linear_118_888)"/>
<path id="Vector_3" d="M8.83191 28.096C9.26047 28.096 9.60791 24.4713 9.60791 20.0001C9.60791 15.5288 9.26047 11.9041 8.83191 11.9041C8.40335 11.9041 8.05591 15.5288 8.05591 20.0001C8.05591 24.4713 8.40335 28.096 8.83191 28.096Z" fill="url(#paint2_linear_118_888)"/>
<path id="Vector_4" d="M10.904 28.9921C11.3812 28.9921 11.768 24.9662 11.768 20.0001C11.768 15.0339 11.3812 11.0081 10.904 11.0081C10.4268 11.0081 10.04 15.0339 10.04 20.0001C10.04 24.9662 10.4268 28.9921 10.904 28.9921Z" fill="url(#paint3_linear_118_888)"/>
<path id="Vector_5" d="M13.208 29.9921C13.7382 29.9921 14.168 25.5185 14.168 20.0001C14.168 14.4817 13.7382 10.0081 13.208 10.0081C12.6779 10.0081 12.248 14.4817 12.248 20.0001C12.248 25.5185 12.6779 29.9921 13.208 29.9921Z" fill="url(#paint4_linear_118_888)"/>
<path id="Vector_6" d="M15.7759 31.104C16.3635 31.104 16.8399 26.1326 16.8399 20C16.8399 13.8674 16.3635 8.896 15.7759 8.896C15.1883 8.896 14.7119 13.8674 14.7119 20C14.7119 26.1326 15.1883 31.104 15.7759 31.104Z" fill="url(#paint5_linear_118_888)"/>
<path id="Vector_7" d="M18.6239 32.3361C19.2779 32.3361 19.8079 26.813 19.8079 20.0001C19.8079 13.1871 19.2779 7.66406 18.6239 7.66406C17.97 7.66406 17.4399 13.1871 17.4399 20.0001C17.4399 26.813 17.97 32.3361 18.6239 32.3361Z" fill="url(#paint6_linear_118_888)"/>
<path id="Vector_8" d="M21.7841 33.7039C22.5132 33.7039 23.1041 27.5684 23.1041 19.9999C23.1041 12.4314 22.5132 6.2959 21.7841 6.2959C21.0551 6.2959 20.4641 12.4314 20.4641 19.9999C20.4641 27.5684 21.0551 33.7039 21.7841 33.7039Z" fill="url(#paint7_linear_118_888)"/>
<path id="Vector_9" d="M25.296 35.2321C26.1046 35.2321 26.76 28.4125 26.76 20.0001C26.76 11.5877 26.1046 4.76807 25.296 4.76807C24.4875 4.76807 23.832 11.5877 23.832 20.0001C23.832 28.4125 24.4875 35.2321 25.296 35.2321Z" fill="url(#paint8_linear_118_888)"/>
<path id="Vector_10" d="M29.1999 36.9201C30.0968 36.9201 30.8239 29.3447 30.8239 20.0001C30.8239 10.6554 30.0968 3.08008 29.1999 3.08008C28.303 3.08008 27.5759 10.6554 27.5759 20.0001C27.5759 29.3447 28.303 36.9201 29.1999 36.9201Z" fill="url(#paint9_linear_118_888)"/>
<path id="Vector_11" d="M33.536 38.8C34.5346 38.8 35.344 30.3829 35.344 20C35.344 9.61699 34.5346 1.19995 33.536 1.19995C32.5375 1.19995 31.728 9.61699 31.728 20C31.728 30.3829 32.5375 38.8 33.536 38.8Z" fill="url(#paint10_linear_118_888)"/>
</g>
<defs>
<linearGradient id="paint0_linear_118_888" x1="5.27995" y1="13.448" x2="5.27995" y2="26.552" gradientUnits="userSpaceOnUse">
<stop stop-color="#272727"/>
<stop offset="1" stop-color="#272727" stop-opacity="0"/>
</linearGradient>
<linearGradient id="paint1_linear_118_888" x1="6.9601" y1="12.72" x2="6.9601" y2="27.28" gradientUnits="userSpaceOnUse">
<stop stop-color="#272727"/>
<stop offset="1" stop-color="#272727" stop-opacity="0"/>
</linearGradient>
<linearGradient id="paint2_linear_118_888" x1="8.83191" y1="11.9041" x2="8.83191" y2="28.096" gradientUnits="userSpaceOnUse">
<stop stop-color="#272727"/>
<stop offset="1" stop-color="#272727" stop-opacity="0"/>
</linearGradient>
<linearGradient id="paint3_linear_118_888" x1="10.904" y1="11.0081" x2="10.904" y2="28.9921" gradientUnits="userSpaceOnUse">
<stop stop-color="#272727"/>
<stop offset="1" stop-color="#272727" stop-opacity="0"/>
</linearGradient>
<linearGradient id="paint4_linear_118_888" x1="13.208" y1="10.0081" x2="13.208" y2="29.9921" gradientUnits="userSpaceOnUse">
<stop stop-color="#272727"/>
<stop offset="1" stop-color="#272727" stop-opacity="0"/>
</linearGradient>
<linearGradient id="paint5_linear_118_888" x1="15.7759" y1="8.896" x2="15.7759" y2="31.104" gradientUnits="userSpaceOnUse">
<stop stop-color="#272727"/>
<stop offset="1" stop-color="#272727" stop-opacity="0"/>
</linearGradient>
<linearGradient id="paint6_linear_118_888" x1="18.6239" y1="7.66406" x2="18.6239" y2="32.3361" gradientUnits="userSpaceOnUse">
<stop stop-color="#272727"/>
<stop offset="1" stop-color="#272727" stop-opacity="0"/>
</linearGradient>
<linearGradient id="paint7_linear_118_888" x1="21.7841" y1="6.2959" x2="21.7841" y2="33.7039" gradientUnits="userSpaceOnUse">
<stop stop-color="#272727"/>
<stop offset="1" stop-color="#272727" stop-opacity="0"/>
</linearGradient>
<linearGradient id="paint8_linear_118_888" x1="25.296" y1="4.76807" x2="25.296" y2="35.2321" gradientUnits="userSpaceOnUse">
<stop stop-color="#272727"/>
<stop offset="1" stop-color="#272727" stop-opacity="0"/>
</linearGradient>
<linearGradient id="paint9_linear_118_888" x1="29.1999" y1="3.08008" x2="29.1999" y2="36.9201" gradientUnits="userSpaceOnUse">
<stop stop-color="#272727"/>
<stop offset="1" stop-color="#272727" stop-opacity="0"/>
</linearGradient>
<linearGradient id="paint10_linear_118_888" x1="33.536" y1="1.19995" x2="33.536" y2="38.8" gradientUnits="userSpaceOnUse">
<stop stop-color="#272727"/>
<stop offset="1" stop-color="#272727" stop-opacity="0"/>
</linearGradient>
</defs>
</svg>
