<svg width="40" height="40" viewBox="0 0 40 40" fill="none" xmlns="http://www.w3.org/2000/svg">
<g id="logo-64">
<path id="Vector" d="M22.0246 32.1115C22.0605 28.4401 21.1297 25.4545 19.9457 25.4429C18.7616 25.4314 17.7727 28.3983 17.7368 32.0696C17.7009 35.7411 18.6317 38.7267 19.8157 38.7383C20.9998 38.7499 21.9888 35.783 22.0246 32.1115Z" fill="url(#paint0_linear_118_900)"/>
<path id="Vector_2" d="M15.1577 31.2777C17.173 28.2086 18.0043 25.1937 17.0145 24.5438C16.0247 23.8939 13.5886 25.855 11.5734 28.9241C9.55809 31.9933 8.72681 35.0081 9.71657 35.6581C10.7064 36.308 13.1424 34.3469 15.1577 31.2777Z" fill="url(#paint1_linear_118_900)"/>
<path id="Vector_3" d="M9.82346 26.8744C13.1782 25.3822 15.5075 23.2955 15.0263 22.2136C14.5451 21.1316 11.4355 21.4643 8.08074 22.9565C4.72605 24.4487 2.39667 26.5354 2.87791 27.6173C3.35914 28.6992 6.46877 28.3666 9.82346 26.8744Z" fill="url(#paint2_linear_118_900)"/>
<path id="Vector_4" d="M14.6236 19.1795C14.8037 18.0092 12.008 16.6076 8.37917 16.0491C4.75028 15.4905 1.66249 15.9865 1.48236 17.1568C1.30223 18.3272 4.09797 19.7286 7.72684 20.2872C11.3557 20.8457 14.4435 20.3497 14.6236 19.1795Z" fill="url(#paint3_linear_118_900)"/>
<path id="Vector_5" d="M15.9263 16.3917C16.7105 15.5045 15.1159 12.8142 12.3648 10.3827C9.61369 7.9513 6.74778 6.6995 5.96364 7.58674C5.1795 8.47401 6.77406 11.1643 9.52521 13.5958C12.2763 16.0272 15.1423 17.279 15.9263 16.3917Z" fill="url(#paint4_linear_118_900)"/>
<path id="Vector_6" d="M18.521 14.7623C19.6604 14.4399 19.7736 11.3145 18.7739 7.7817C17.7742 4.24883 16.0401 1.64624 14.9008 1.96865C13.7614 2.29106 13.6482 5.41637 14.6479 8.94927C15.6476 12.4821 17.3816 15.0847 18.521 14.7623Z" fill="url(#paint5_linear_118_900)"/>
<path id="Vector_7" d="M25.5668 9.05921C26.636 5.54673 26.5845 2.41979 25.4517 2.07498C24.3189 1.73017 22.5338 4.29805 21.4646 7.81052C20.3955 11.323 20.447 14.4499 21.5798 14.7947C22.7126 15.1395 24.4977 12.5717 25.5668 9.05921Z" fill="url(#paint6_linear_118_900)"/>
<path id="Vector_8" d="M30.6011 13.8053C33.3993 11.4281 35.0461 8.76947 34.2794 7.8671C33.5128 6.9647 30.6229 8.16028 27.8249 10.5374C25.0267 12.9146 23.3799 15.5732 24.1465 16.4756C24.9132 17.378 27.803 16.1825 30.6011 13.8053Z" fill="url(#paint7_linear_118_900)"/>
<path id="Vector_9" d="M32.2658 20.5215C35.905 20.0347 38.7278 18.6886 38.5708 17.5149C38.4138 16.3413 35.3364 15.7846 31.6972 16.2714C28.0581 16.7583 25.2352 18.1043 25.3922 19.278C25.5493 20.4516 28.6266 21.0084 32.2658 20.5215Z" fill="url(#paint8_linear_118_900)"/>
<path id="Vector_10" d="M36.9602 27.9528C37.4627 26.8806 35.1749 24.7484 31.8503 23.1903C28.5257 21.6322 25.4232 21.2384 24.9208 22.3105C24.4183 23.3828 26.706 25.515 30.0307 27.0731C33.3552 28.6311 36.4577 29.025 36.9602 27.9528Z" fill="url(#paint9_linear_118_900)"/>
<path id="Vector_11" d="M29.9671 35.864C30.9695 35.2338 30.1978 32.203 28.2435 29.0948C26.2892 25.9866 23.8922 23.9778 22.8898 24.6081C21.8874 25.2383 22.6591 28.269 24.6134 31.3773C26.5678 34.4855 28.9647 36.4943 29.9671 35.864Z" fill="url(#paint10_linear_118_900)"/>
</g>
<defs>
<linearGradient id="paint0_linear_118_900" x1="19.8807" y1="25.4429" x2="19.8807" y2="38.7383" gradientUnits="userSpaceOnUse">
<stop stop-color="#272727"/>
<stop offset="1" stop-color="#272727" stop-opacity="0"/>
</linearGradient>
<linearGradient id="paint1_linear_118_900" x1="13.3655" y1="24.4194" x2="13.3655" y2="35.7825" gradientUnits="userSpaceOnUse">
<stop stop-color="#272727"/>
<stop offset="1" stop-color="#272727" stop-opacity="0"/>
</linearGradient>
<linearGradient id="paint2_linear_118_900" x1="8.95209" y1="21.5779" x2="8.95209" y2="28.253" gradientUnits="userSpaceOnUse">
<stop stop-color="#272727"/>
<stop offset="1" stop-color="#272727" stop-opacity="0"/>
</linearGradient>
<linearGradient id="paint3_linear_118_900" x1="8.05297" y1="15.8196" x2="8.05297" y2="20.5167" gradientUnits="userSpaceOnUse">
<stop stop-color="#272727"/>
<stop offset="1" stop-color="#272727" stop-opacity="0"/>
</linearGradient>
<linearGradient id="paint4_linear_118_900" x1="10.945" y1="7.30151" x2="10.945" y2="16.6769" gradientUnits="userSpaceOnUse">
<stop stop-color="#272727"/>
<stop offset="1" stop-color="#272727" stop-opacity="0"/>
</linearGradient>
<linearGradient id="paint5_linear_118_900" x1="16.7109" y1="1.94165" x2="16.7109" y2="14.7893" gradientUnits="userSpaceOnUse">
<stop stop-color="#272727"/>
<stop offset="1" stop-color="#272727" stop-opacity="0"/>
</linearGradient>
<linearGradient id="paint6_linear_118_900" x1="23.5157" y1="2.04395" x2="23.5157" y2="14.8258" gradientUnits="userSpaceOnUse">
<stop stop-color="#272727"/>
<stop offset="1" stop-color="#272727" stop-opacity="0"/>
</linearGradient>
<linearGradient id="paint7_linear_118_900" x1="29.213" y1="7.56616" x2="29.213" y2="16.7766" gradientUnits="userSpaceOnUse">
<stop stop-color="#272727"/>
<stop offset="1" stop-color="#272727" stop-opacity="0"/>
</linearGradient>
<linearGradient id="paint8_linear_118_900" x1="31.9815" y1="16.0952" x2="31.9815" y2="20.6977" gradientUnits="userSpaceOnUse">
<stop stop-color="#272727"/>
<stop offset="1" stop-color="#272727" stop-opacity="0"/>
</linearGradient>
<linearGradient id="paint9_linear_118_900" x1="30.9405" y1="21.7068" x2="30.9405" y2="28.5566" gradientUnits="userSpaceOnUse">
<stop stop-color="#272727"/>
<stop offset="1" stop-color="#272727" stop-opacity="0"/>
</linearGradient>
<linearGradient id="paint10_linear_118_900" x1="26.4285" y1="24.4924" x2="26.4285" y2="35.9797" gradientUnits="userSpaceOnUse">
<stop stop-color="#272727"/>
<stop offset="1" stop-color="#272727" stop-opacity="0"/>
</linearGradient>
</defs>
</svg>
