<svg width="40" height="44" viewBox="0 0 40 44" fill="none" xmlns="http://www.w3.org/2000/svg">
<g id="logo-71" clip-path="url(#clip0_118_869)">
<path id="Vector" fill-rule="evenodd" clip-rule="evenodd" d="M21.0909 7.56906C21.0909 6.61615 20.8616 5.67633 20.4211 4.82402C20.0404 4.08729 19.8168 3.28395 19.7637 2.46186L19.6364 0.490967L19.5091 2.46179C19.4559 3.28389 19.2324 4.08725 18.8516 4.82399C18.4112 5.67633 18.1818 6.61617 18.1818 7.5691V35.631C18.1818 36.5839 18.4112 37.5238 18.8516 38.3761C19.2324 39.1129 19.4559 39.9162 19.5091 40.7383L19.6364 42.7091L19.7637 40.7383C19.8168 39.9161 20.0404 39.1129 20.4211 38.3761C20.8616 37.5238 21.0909 36.584 21.0909 35.631V7.56906ZM13.1484 7.63856C13.5889 8.49088 13.8182 9.43075 13.8182 10.3837V32.8165C13.8182 33.7694 13.5889 34.7092 13.1484 35.5616C12.7676 36.2983 12.5441 37.1017 12.4909 37.9237L12.3636 39.8946L12.2364 37.9237C12.1832 37.1017 11.9596 36.2983 11.5789 35.5616C11.1384 34.7092 10.9091 33.7694 10.9091 32.8165V10.3837C10.9091 9.43075 11.1384 8.49088 11.5789 7.63856C11.9596 6.90182 12.1832 6.09848 12.2364 5.27638L12.3636 3.30552L12.4909 5.27638C12.5441 6.09848 12.7676 6.90182 13.1484 7.63856ZM10.1818 13.1982C10.1818 12.2452 9.95254 11.3054 9.512 10.4531C9.13127 9.71634 8.9077 8.91301 8.85459 8.09091L8.72727 6.12005L8.59995 8.09091C8.54684 8.91301 8.32326 9.71634 7.94252 10.4531C7.50204 11.3054 7.27273 12.2452 7.27273 13.1982V30.0019C7.27273 30.9548 7.50204 31.8947 7.94252 32.747C8.32326 33.4838 8.54684 34.2871 8.59995 35.1092L8.72727 37.08L8.85459 35.1092C8.9077 34.2871 9.13127 33.4838 9.512 32.747C9.95254 31.8947 10.1818 30.9548 10.1818 30.0019V13.1982ZM5.87566 16.0821C6.31613 16.9345 6.54545 17.8743 6.54545 18.8273V24.3728C6.54545 25.3257 6.31613 26.2656 5.87566 27.1179C5.49492 27.8547 5.27133 28.658 5.21823 29.4801L5.09091 31.451L4.96359 29.4801C4.91048 28.658 4.6869 27.8547 4.30615 27.1179C3.86568 26.2656 3.63636 25.3257 3.63636 24.3728V18.8273C3.63636 17.8743 3.86568 16.9345 4.30615 16.0821C4.6869 15.3454 4.91048 14.5421 4.96359 13.72L5.09091 11.7491L5.21823 13.72C5.27133 14.5421 5.49492 15.3454 5.87566 16.0821ZM2.90894 21.6001L2.90909 21.6418V21.5583L2.90894 21.6001ZM0 21.6418L0.000146747 21.6001C0.00674477 22.5387 0.235752 23.4635 0.669792 24.3033C1.05054 25.0401 1.27412 25.8434 1.32723 26.6655L1.45455 28.6364L1.58186 26.6655C1.63497 25.8434 1.85855 25.0401 2.2393 24.3033C2.67334 23.4635 2.90234 22.5387 2.90894 21.6001C2.90234 20.6614 2.67334 19.7366 2.2393 18.8968C1.85855 18.16 1.63497 17.3567 1.58186 16.5346L1.45455 14.5637L1.32723 16.5346C1.27412 17.3567 1.05054 18.16 0.669792 18.8968C0.235752 19.7366 0.00674479 20.6614 0.000146747 21.6001L0 21.5583V21.6418ZM16.7847 4.82401C17.2253 5.67633 17.4545 6.61616 17.4545 7.56908V35.631C17.4545 36.584 17.2253 37.5238 16.7847 38.3761C16.404 39.1129 16.1805 39.9161 16.1273 40.7383L16 42.7091L15.8727 40.7383C15.8195 39.9161 15.596 39.1129 15.2153 38.3761C14.7747 37.5238 14.5455 36.584 14.5455 35.631V7.56908C14.5455 6.61616 14.7747 5.67633 15.2153 4.82401C15.596 4.08727 15.8195 3.28392 15.8727 2.46183L16 0.490967L16.1273 2.46183C16.1805 3.28392 16.404 4.08727 16.7847 4.82401ZM24.0574 4.82401C24.498 5.67633 24.7273 6.61616 24.7273 7.56908V35.631C24.7273 36.584 24.498 37.5238 24.0574 38.3761C23.6767 39.1129 23.4532 39.9161 23.4 40.7383L23.2727 42.7091L23.1454 40.7383C23.0923 39.9161 22.8687 39.1129 22.488 38.3761C22.0474 37.5238 21.8182 36.584 21.8182 35.631V7.56908C21.8182 6.61616 22.0474 5.67633 22.488 4.82401C22.8687 4.08727 23.0923 3.28392 23.1454 2.46183L23.2727 0.490967L23.4 2.46183C23.4532 3.28392 23.6767 4.08727 24.0574 4.82401ZM28.3636 10.3837C28.3636 9.43075 28.1344 8.49088 27.6938 7.63856C27.3131 6.90182 27.0895 6.09848 27.0364 5.27638L26.9091 3.30552L26.7818 5.27638C26.7286 6.09848 26.5051 6.90182 26.1244 7.63856C25.6838 8.49088 25.4545 9.43075 25.4545 10.3837V32.8165C25.4545 33.7694 25.6838 34.7092 26.1244 35.5616C26.5051 36.2983 26.7286 37.1017 26.7818 37.9237L26.9091 39.8946L27.0364 37.9237C27.0895 37.1017 27.3131 36.2983 27.6938 35.5616C28.1344 34.7092 28.3636 33.7694 28.3636 32.8165V10.3837ZM31.3302 10.4531C31.7707 11.3054 32 12.2452 32 13.1982V30.0019C32 30.9548 31.7707 31.8947 31.3302 32.747C30.9494 33.4838 30.7259 34.2871 30.6727 35.1092L30.5454 37.08L30.4182 35.1092C30.365 34.2871 30.1414 33.4838 29.7607 32.747C29.3203 31.8947 29.0909 30.9548 29.0909 30.0019V13.1982C29.0909 12.2452 29.3203 11.3054 29.7607 10.4531C30.1414 9.71634 30.365 8.91301 30.4182 8.09091L30.5454 6.12005L30.6727 8.09091C30.7259 8.91301 30.9494 9.71634 31.3302 10.4531ZM35.6364 18.8273C35.6364 17.8743 35.4071 16.9345 34.9665 16.0821C34.5858 15.3454 34.3623 14.5421 34.3091 13.72L34.1818 11.7491L34.0545 13.72C34.0014 14.5421 33.7778 15.3454 33.3971 16.0821C32.9566 16.9345 32.7273 17.8743 32.7273 18.8273V24.3728C32.7273 25.3257 32.9566 26.2656 33.3971 27.1179C33.7778 27.8547 34.0014 28.658 34.0545 29.4801L34.1818 31.451L34.3091 29.4801C34.3623 28.658 34.5858 27.8547 34.9665 27.1179C35.4071 26.2656 35.6364 25.3257 35.6364 24.3728V18.8273ZM39.2725 21.6001C39.2726 21.6139 39.2727 21.6278 39.2727 21.6418V21.5583C39.2727 21.5723 39.2726 21.5862 39.2725 21.6001ZM36.3638 21.6001C36.3703 22.5387 36.5994 23.4635 37.0334 24.3033C37.4142 25.0401 37.6377 25.8434 37.6909 26.6655L37.8182 28.6364L37.9454 26.6655C37.9986 25.8434 38.2222 25.0401 38.6029 24.3033C39.037 23.4635 39.266 22.5387 39.2725 21.6001C39.266 20.6614 39.037 19.7366 38.6029 18.8968C38.2222 18.16 37.9986 17.3567 37.9454 16.5346L37.8182 14.5637L37.6909 16.5346C37.6377 17.3567 37.4142 18.16 37.0334 18.8968C36.5994 19.7366 36.3703 20.6614 36.3638 21.6001ZM36.3638 21.6001C36.3637 21.5862 36.3636 21.5723 36.3636 21.5583V21.6418C36.3636 21.6278 36.3637 21.6139 36.3638 21.6001Z" fill="url(#paint0_linear_118_869)"/>
</g>
<defs>
<linearGradient id="paint0_linear_118_869" x1="19.6364" y1="0.490967" x2="19.6364" y2="42.7091" gradientUnits="userSpaceOnUse">
<stop stop-color="#272727"/>
<stop offset="1" stop-color="#272727" stop-opacity="0"/>
</linearGradient>
<clipPath id="clip0_118_869">
<rect width="40" height="43.2" fill="white"/>
</clipPath>
</defs>
</svg>
